<svg xmlns="http://www.w3.org/2000/svg" xmlns:xlink="http://www.w3.org/1999/xlink" width="1029" zoomAndPan="magnify" viewBox="0 0 771.75 651.000003" height="868" preserveAspectRatio="xMidYMid meet" version="1.0"><defs><g/><clipPath id="e6c82a2360"><path d="M 345 42 L 525.410156 42 L 525.410156 473.230469 L 345 473.230469 Z M 345 42 " clip-rule="nonzero"/></clipPath><clipPath id="8e9ee847a4"><path d="M 0.136719 69 L 189 69 L 189 473.230469 L 0.136719 473.230469 Z M 0.136719 69 " clip-rule="nonzero"/></clipPath><clipPath id="5a5f5416ba"><path d="M 479 391 L 525.410156 391 L 525.410156 454 L 479 454 Z M 479 391 " clip-rule="nonzero"/></clipPath><clipPath id="427facf5e2"><path d="M 1 0.199219 L 64 0.199219 L 64 47 L 1 47 Z M 1 0.199219 " clip-rule="nonzero"/></clipPath><clipPath id="d26c5e886a"><path d="M 0.136719 0.199219 L 324 0.199219 L 324 174 L 0.136719 174 Z M 0.136719 0.199219 " clip-rule="nonzero"/></clipPath><clipPath id="b0049c2e47"><path d="M 139 0.199219 L 525 0.199219 L 525 224 L 139 224 Z M 139 0.199219 " clip-rule="nonzero"/></clipPath><clipPath id="e2648dd4ef"><path d="M 213.351562 58.085938 L 245.042969 58.085938 L 245.042969 91.507812 L 213.351562 91.507812 Z M 213.351562 58.085938 " clip-rule="nonzero"/></clipPath><clipPath id="d0ec780964"><path d="M 229.199219 58.085938 C 220.445312 58.085938 213.351562 65.566406 213.351562 74.792969 C 213.351562 84.019531 220.445312 91.496094 229.199219 91.496094 C 237.949219 91.496094 245.042969 84.019531 245.042969 74.792969 C 245.042969 65.566406 237.949219 58.085938 229.199219 58.085938 Z M 229.199219 58.085938 " clip-rule="nonzero"/></clipPath><clipPath id="b062a27678"><path d="M 0.351562 0.0859375 L 32.042969 0.0859375 L 32.042969 33.5 L 0.351562 33.5 Z M 0.351562 0.0859375 " clip-rule="nonzero"/></clipPath><clipPath id="08216d47fa"><path d="M 16.199219 0.0859375 C 7.445312 0.0859375 0.351562 7.566406 0.351562 16.792969 C 0.351562 26.019531 7.445312 33.496094 16.199219 33.496094 C 24.949219 33.496094 32.042969 26.019531 32.042969 16.792969 C 32.042969 7.566406 24.949219 0.0859375 16.199219 0.0859375 Z M 16.199219 0.0859375 " clip-rule="nonzero"/></clipPath><clipPath id="6df519b323"><rect x="0" width="33" y="0" height="34"/></clipPath><clipPath id="5f31324024"><path d="M 133 70 L 415 70 L 415 473.230469 L 133 473.230469 Z M 133 70 " clip-rule="nonzero"/></clipPath><clipPath id="037b27deb5"><rect x="0" width="282" y="0" height="404"/></clipPath><clipPath id="40cd14a76d"><rect x="0" width="526" y="0" height="474"/></clipPath></defs><g transform="matrix(1, 0, 0, 1, 112, 53)"><g clip-path="url(#40cd14a76d)"><g clip-path="url(#e6c82a2360)"><path stroke-linecap="butt" transform="matrix(-0.215859, -1.526148, 1.526148, -0.215859, 466.417668, 423.382208)" fill="none" stroke-linejoin="miter" d="M -0.00100174 4.998853 L 191.417096 5.00082 " stroke="#0a66c2" stroke-width="10" stroke-opacity="1" stroke-miterlimit="4"/></g><g clip-path="url(#8e9ee847a4)"><path stroke-linecap="butt" transform="matrix(-0.385357, 1.492389, -1.492389, -0.385357, 118.937705, 117.477825)" fill="none" stroke-linejoin="miter" d="M 27.498743 5.000018 L 205.553076 4.999229 " stroke="#ff6d29" stroke-width="10" stroke-opacity="1" stroke-miterlimit="4"/></g><path stroke-linecap="round" transform="matrix(-0.385357, 1.492389, -1.492389, -0.385357, 118.937705, 117.477825)" fill-opacity="1" fill="#ff6d29" fill-rule="nonzero" stroke-linejoin="round" d="M 24.999876 -9.999226 L 4.998913 4.999072 L 25.000858 19.999095 Z M 24.999876 -9.999226 " stroke="#ff6d29" stroke-width="10" stroke-opacity="1" stroke-miterlimit="4"/><path stroke-linecap="butt" transform="matrix(-1.541338, -0.00000000269014, 0.00000000269014, -1.541338, 525.318373, 430.017472)" fill="none" stroke-linejoin="miter" d="M 27.501221 4.998884 L 320.344843 4.998884 " stroke="#ffd646" stroke-width="10" stroke-opacity="1" stroke-miterlimit="4"/><path fill="#ffd646" d="M 486.785156 445.429688 L 517.613281 422.3125 L 486.785156 399.191406 Z M 486.785156 445.429688 " fill-opacity="1" fill-rule="nonzero"/><g clip-path="url(#5a5f5416ba)"><path stroke-linecap="round" transform="matrix(-1.541338, -0.00000000269014, 0.00000000269014, -1.541338, 525.318373, 430.017472)" fill="none" stroke-linejoin="round" d="M 24.999843 -9.999243 L 4.998962 4.998884 L 24.999844 19.999545 Z M 24.999843 -9.999243 " stroke="#ffd646" stroke-width="10" stroke-opacity="1" stroke-miterlimit="4"/></g><path stroke-linecap="butt" transform="matrix(0.00000000269014, 1.541338, -1.541338, 0.00000000269014, 39.967515, 0.241509)" fill="none" stroke-linejoin="miter" d="M 27.500385 4.999419 L 278.948366 4.99942 " stroke="#0a66c2" stroke-width="10" stroke-opacity="1" stroke-miterlimit="4"/><path fill="#0a66c2" d="M 55.382812 38.773438 L 32.261719 7.949219 L 9.140625 38.773438 Z M 55.382812 38.773438 " fill-opacity="1" fill-rule="nonzero"/><g clip-path="url(#427facf5e2)"><path stroke-linecap="round" transform="matrix(0.00000000269014, 1.541338, -1.541338, 0.00000000269014, 39.967515, 0.241509)" fill="none" stroke-linejoin="round" d="M 24.999008 -10.001242 L 5.000661 4.999419 L 24.999008 20.000081 Z M 24.999008 -10.001242 " stroke="#0a66c2" stroke-width="10" stroke-opacity="1" stroke-miterlimit="4"/></g><g clip-path="url(#d26c5e886a)"><path stroke-linecap="butt" transform="matrix(-1.539085, 0.0833137, -0.0833137, -1.539085, 237.108025, 82.487049)" fill="none" stroke-linejoin="miter" d="M 0.0000794139 4.99913 L 133.2823 5.000868 " stroke="#0a66c2" stroke-width="10" stroke-opacity="1" stroke-miterlimit="4"/></g><g clip-path="url(#b0049c2e47)"><path stroke-linecap="butt" transform="matrix(-1.480195, -0.429822, 0.429822, -1.480195, 435.076501, 143.358086)" fill="none" stroke-linejoin="miter" d="M -0.000579728 5.000222 L 142.313049 4.999203 " stroke="#0a66c2" stroke-width="10" stroke-opacity="1" stroke-miterlimit="4"/></g><g clip-path="url(#e2648dd4ef)"><g clip-path="url(#d0ec780964)"><g transform="matrix(1, 0, 0, 1, 213, 58)"><g clip-path="url(#6df519b323)"><g clip-path="url(#b062a27678)"><g clip-path="url(#08216d47fa)"><path fill="#ff6d29" d="M 0.351562 0.0859375 L 32.042969 0.0859375 L 32.042969 33.507812 L 0.351562 33.507812 Z M 0.351562 0.0859375 " fill-opacity="1" fill-rule="nonzero"/></g></g></g></g></g></g><g clip-path="url(#5f31324024)"><g transform="matrix(1, 0, 0, 1, 133, 70)"><g clip-path="url(#037b27deb5)"><g fill="#0a66c2" fill-opacity="1"><g transform="translate(1.385858, 301.281026)"><g><path d="M 42.546875 -177.109375 C 33.921875 -177.109375 26.875 -179.644531 21.40625 -184.71875 C 15.945312 -189.800781 13.21875 -196.082031 13.21875 -203.5625 C 13.21875 -211.226562 15.945312 -217.597656 21.40625 -222.671875 C 26.875 -227.753906 33.921875 -230.296875 42.546875 -230.296875 C 50.984375 -230.296875 57.929688 -227.753906 63.390625 -222.671875 C 68.859375 -217.597656 71.59375 -211.226562 71.59375 -203.5625 C 71.59375 -196.082031 68.859375 -189.800781 63.390625 -184.71875 C 57.929688 -179.644531 50.984375 -177.109375 42.546875 -177.109375 Z M 66.984375 -160.4375 L 66.984375 0 L 17.828125 0 L 17.828125 -160.4375 Z M 66.984375 -160.4375 "/></g></g></g><g fill="#0a66c2" fill-opacity="1"><g transform="translate(86.195429, 301.281026)"><g><path d="M 115.578125 -162.15625 C 134.367188 -162.15625 149.367188 -156.066406 160.578125 -143.890625 C 171.785156 -131.722656 177.390625 -115.003906 177.390625 -93.734375 L 177.390625 0 L 128.515625 0 L 128.515625 -87.125 C 128.515625 -97.851562 125.734375 -106.1875 120.171875 -112.125 C 114.617188 -118.070312 107.144531 -121.046875 97.75 -121.046875 C 88.363281 -121.046875 80.890625 -118.070312 75.328125 -112.125 C 69.765625 -106.1875 66.984375 -97.851562 66.984375 -87.125 L 66.984375 0 L 17.828125 0 L 17.828125 -160.4375 L 66.984375 -160.4375 L 66.984375 -139.15625 C 71.972656 -146.25 78.679688 -151.851562 87.109375 -155.96875 C 95.546875 -160.09375 105.035156 -162.15625 115.578125 -162.15625 Z M 115.578125 -162.15625 "/></g></g></g></g></g></g></g></g></svg>